<svg xmlns="http://www.w3.org/2000/svg" width="163" height="163" viewBox="0 0 163 163">
  <g fill="none">
    <polygon fill="#A3A3A3" points="85.088 15.879 41.877 41.253 28.704 33.187 85.088 0"/>
    <polygon fill="#666" points="85.088 16.155 116.713 35.216 130.195 27.181 85.088 0"/>
    <polygon fill="#666" points="84 146.374 127.057 121 127.057 136.879 84 162.253"/>
    <polygon fill="#407AB6" points="85.088 81.873 18.453 43.265 18.453 58.991 85.088 97.599"/>
    <polygon fill="#A3A3A3" points="26.924 113.488 26.924 81.179 13.327 73.451 13.327 121.134 84.063 161.994 84.063 146.456"/>
    <polygon fill="#0D3F74" points="85.088 81.699 85.088 97.429 142.227 63.972 142.227 118.735 155.824 110.911 155.824 40.253"/>
    <path fill="#407AB6" d="M13.2844656,52.8513983 C10.8149175,52.8513983 8.68599674,50.8454818 8.68599674,48.3380862 C8.68599674,45.8306906 10.8149175,43.8247742 13.2844656,43.8247742 C15.8391705,43.8247742 17.9680913,45.8306906 17.9680913,48.3380862 C17.9680913,50.8454818 15.8391705,52.8513983 13.2844656,52.8513983 Z M13.2844656,35.2160494 C5.96097816,35.2160494 0,41.0666391 0,48.3380862 C0,55.5259535 5.96097816,61.3765432 13.2844656,61.3765432 C20.6931099,61.3765432 26.6540881,55.5259535 26.6540881,48.3380862 C26.6540881,41.0666391 20.6931099,35.2160494 13.2844656,35.2160494 Z"/>
    <path fill="#666" d="M129.21239,38.6813987 C126.657685,38.6813987 124.613921,36.6754822 124.613921,34.1680866 C124.613921,31.660691 126.657685,29.6547746 129.21239,29.6547746 C131.767095,29.6547746 133.810859,31.660691 133.810859,34.1680866 C133.810859,36.6754822 131.767095,38.6813987 129.21239,38.6813987 Z M129.21239,21.1296296 C121.803745,21.1296296 115.842767,26.9802193 115.842767,34.1680866 C115.842767,41.4395338 121.803745,47.2901235 129.21239,47.2901235 C136.535877,47.2901235 142.496855,41.4395338 142.496855,34.1680866 C142.496855,26.9802193 136.535877,21.1296296 129.21239,21.1296296 Z"/>
    <path fill="#0D3F74" d="M149.715534,126.218436 C147.160829,126.218436 145.117066,124.212519 145.117066,121.705124 C145.117066,119.197728 147.160829,117.191812 149.715534,117.191812 C152.270239,117.191812 154.314003,119.197728 154.314003,121.705124 C154.314003,124.212519 152.270239,126.218436 149.715534,126.218436 Z M149.715534,108.666667 C142.30689,108.666667 136.345912,114.517256 136.345912,121.705124 C136.345912,128.976571 142.30689,134.82716 149.715534,134.82716 C157.039022,134.82716 163,128.976571 163,121.705124 C163,114.517256 157.039022,108.666667 149.715534,108.666667 Z"/>
  </g>
</svg>
